<?xml version="1.0" encoding="UTF-8" standalone="no"?>
<svg
   xmlns:dc="http://purl.org/dc/elements/1.1/"
   xmlns:cc="http://creativecommons.org/ns#"
   xmlns:rdf="http://www.w3.org/1999/02/22-rdf-syntax-ns#"
   xmlns:svg="http://www.w3.org/2000/svg"
   xmlns="http://www.w3.org/2000/svg"
   xmlns:xlink="http://www.w3.org/1999/xlink"
   xmlns:sodipodi="http://sodipodi.sourceforge.net/DTD/sodipodi-0.dtd"
   xmlns:inkscape="http://www.inkscape.org/namespaces/inkscape"
   id="svg2"
   width="88"
   height="31"
   version="1.1"
   inkscape:version="0.91 r13725"
   sodipodi:docname="Powered_by_debian.svg">
  <sodipodi:namedview
     pagecolor="#ffffff"
     bordercolor="#666666"
     borderopacity="1"
     objecttolerance="10"
     gridtolerance="10"
     guidetolerance="10"
     inkscape:pageopacity="0"
     inkscape:pageshadow="2"
     inkscape:window-width="1920"
     inkscape:window-height="1052"
     id="namedview4178"
     showgrid="false"
     inkscape:zoom="8"
     inkscape:cx="12.748623"
     inkscape:cy="35.61366"
     inkscape:window-x="0"
     inkscape:window-y="0"
     inkscape:window-maximized="1"
     inkscape:current-layer="g5029" />
  <defs
     id="defs4">
    <linearGradient
       id="linearGradient4218">
      <stop
         id="stop4220"
         offset="0"
         style="stop-color:rgb(200, 200, 200);stop-opacity:1" />
      <stop
         id="stop4222"
         offset="1"
         style="stop-color:rgb(120, 120, 120);stop-opacity:1" />
    </linearGradient>
    <linearGradient
       id="linearGradient4255">
      <stop
         id="stop4257"
         offset="0"
         style="stop-color:rgb(255, 255, 255);stop-opacity:1" />
      <stop
         id="stop4259"
         offset="1"
         style="stop-color:rgb(235, 235, 235);stop-opacity:1" />
    </linearGradient>
    <linearGradient
       id="linearGradient3485"
       gradientUnits="userSpaceOnUse"
       gradientTransform="matrix(0.988504 0 0 0.979918 -59.8012 -51.2376)"
       x1="475.3"
       y1="320.26"
       x2="475.3"
       y2="749.32"
       xlink:href="#linearGradient3479" />
    <linearGradient
       id="linearGradient3479">
      <stop
         id="stop3481"
         offset="0"
         style="stop-color:rgb(204, 204, 204);stop-opacity:1" />
      <stop
         id="stop3483"
         offset="1"
         style="stop-color:rgb(246, 246, 246);stop-opacity:1" />
    </linearGradient>
    <linearGradient
       id="linearGradient3412"
       gradientUnits="userSpaceOnUse"
       gradientTransform="matrix(0.988764,0,0,0.983562,290.579,13.9422)"
       x1="400.37"
       y1="755.73"
       x2="400.51"
       y2="787.18"
       xlink:href="#linearGradient4255" />
    <linearGradient
       id="linearGradient3414"
       gradientUnits="userSpaceOnUse"
       gradientTransform="matrix(0.994349,0,0,0.983958,288.688,13.6307)"
       x1="385.53"
       y1="756.12"
       x2="385.83"
       y2="786.63"
       xlink:href="#linearGradient4218" />
    <linearGradient
       inkscape:collect="always"
       xlink:href="#linearGradient4255"
       id="linearGradient5123"
       gradientUnits="userSpaceOnUse"
       gradientTransform="matrix(0.988764,0,0,0.983562,-334.351,-743.00781)"
       x1="400.37"
       y1="755.73"
       x2="400.51"
       y2="787.18" />
    <linearGradient
       inkscape:collect="always"
       xlink:href="#linearGradient4218"
       id="linearGradient5125"
       gradientUnits="userSpaceOnUse"
       gradientTransform="matrix(0.994349,0,0,0.983958,-336.242,-743.31931)"
       x1="385.53"
       y1="756.12"
       x2="385.83"
       y2="786.63" />
  </defs>
  <metadata
     id="metadata7">
    <rdf:RDF>
      <cc:Work
         rdf:about="">
        <dc:format>
          image/svg+xml
        </dc:format>
        <dc:type
           rdf:resource="http://purl.org/dc/dcmitype/StillImage" />
        <dc:title />
      </cc:Work>
    </rdf:RDF>
  </metadata>
  <g
     inkscape:label="Layer 1 copy"
     id="g5029"
     inkscape:groupmode="layer"
     style="display:inline;opacity:1">
    <rect
       style="fill:url(#linearGradient5123);stroke:url(#linearGradient5125);stroke-width:0.5"
       ry="4.1300001"
       rx="4.7800002"
       height="30.5"
       width="87.5"
       y="0.25"
       x="0.25"
       id="rect5035" />
    <g
       id="g5178"
       transform="matrix(0.2775988,0,0,0.2775988,-6.3456592,47.692601)">
      <path
         inkscape:connector-curvature="0"
         style="fill:#d70751"
         d="m 99.173387,-113.30333 c -1.49397,0.02 0.28099,0.76799 2.231953,1.06898 0.54099,-0.42199 1.02698,-0.84598 1.46297,-1.25997 -1.21297,0.29699 -2.44895,0.30399 -3.694923,0.19099"
         id="path5085" />
      <path
         inkscape:connector-curvature="0"
         style="fill:#d70751"
         d="m 107.19022,-115.30229 c 0.89298,-1.22897 1.54097,-2.57294 1.76996,-3.96292 -0.20099,0.98998 -0.73598,1.84497 -1.24397,2.74895 -2.79294,1.75896 -0.26399,-1.04398 -0.002,-2.11096 -3.00194,3.78292 -0.41399,2.26795 -0.52399,3.32493"
         id="path5087" />
      <path
         inkscape:connector-curvature="0"
         style="fill:#d70751"
         d="m 110.15316,-123.00613 c 0.182,-2.69094 -0.52899,-1.83896 -0.76798,-0.81398 0.27799,0.146 0.49898,1.89796 0.76798,0.81398"
         id="path5089" />
      <path
         inkscape:connector-curvature="0"
         style="fill:#d70751"
         d="m 93.505497,-159.78436 c 0.79799,0.14199 1.72397,0.25199 1.59097,0.44299 0.87598,-0.193 1.07298,-0.367 -1.59097,-0.44299"
         id="path5091" />
      <path
         inkscape:connector-curvature="0"
         style="fill:#d70751"
         d="m 95.097467,-159.34137 -0.56099,0.11699 0.52299,-0.048 0.038,-0.069"
         id="path5093" />
      <path
         inkscape:connector-curvature="0"
         style="fill:#d70751"
         d="m 119.96596,-121.98615 c 0.09,2.41595 -0.70499,3.58993 -1.42397,5.66588 l -1.29298,0.64299 c -1.05698,2.05396 0.105,1.30397 -0.65198,2.93694 -1.65197,1.46697 -5.0059,4.5889 -6.07988,4.8749 -0.78498,-0.017 0.53099,-0.92598 0.70299,-1.28097 -2.20896,1.51596 -1.77297,2.27595 -5.1519,3.19893 l -0.098,-0.221 c -8.329823,3.91992 -19.901583,-3.84692 -19.749593,-14.4427 -0.088,0.67199 -0.25299,0.50399 -0.43699,0.77399 -0.42999,-5.45089 2.51795,-10.92578 7.48985,-13.16473 4.8629,-2.40595 10.563783,-1.41997 14.044713,1.82896 -1.91196,-2.50595 -5.72089,-5.16289 -10.231793,-4.9169 -4.42091,0.072 -8.55782,2.88094 -9.9378,5.93188 -2.26395,1.42497 -2.52794,5.49589 -3.51392,6.24187 -1.32898,9.7598 2.49695,13.97471 8.96981,18.93561 1.01598,0.68598 0.286,0.79098 0.42199,1.31297 -2.14995,-1.00598 -4.11791,-2.52595 -5.73788,-4.38691 0.85998,1.25698 1.78696,2.47895 2.98594,3.43893 -2.02896,-0.68498 -4.7379,-4.9129 -5.52689,-5.08489 3.49493,6.25787 14.17771,10.974768 19.774593,8.63382 -2.58994,0.096 -5.878873,0.053 -8.786813,-1.02198 -1.22498,-0.62899 -2.88394,-1.92996 -2.58695,-2.17296 7.635843,2.85094 15.521683,2.15796 22.127543,-3.13693 1.68197,-1.30997 3.51793,-3.53693 4.04892,-3.56693 -0.79899,1.20198 0.13699,0.57799 -0.47699,1.63897 1.67196,-2.70095 -0.72899,-1.09998 1.72996,-4.6639 l 0.90798,1.24997 c -0.33999,-2.24395 2.78495,-4.9659 2.46695,-8.51182 0.71699,-1.08398 0.79899,1.16797 0.039,3.66192 1.05498,-2.76694 0.279,-3.21193 0.54899,-5.49589 0.291,0.76799 0.67799,1.58297 0.87498,2.39395 -0.68798,-2.67494 0.70299,-4.5029 1.04898,-6.05787 -0.34199,-0.15 -1.06098,1.18198 -1.22697,-1.97596 0.025,-1.37197 0.38299,-0.71898 0.51999,-1.05698 -0.268,-0.15499 -0.97498,-1.20697 -1.40397,-3.22393 0.30899,-0.47499 0.83198,1.22897 1.25597,1.29797 -0.27299,-1.60296 -0.74198,-2.82594 -0.76198,-4.05691 -1.23998,-2.58995 -0.439,0.34599 -1.44297,-1.11198 -1.31998,-4.11391 1.09397,-0.95498 1.25797,-2.82294 1.99796,2.89494 3.13693,7.38485 3.66192,9.24381 -0.39999,-2.26696 -1.04497,-4.46391 -1.83396,-6.58887 0.60899,0.257 -0.97898,-4.6629 0.79099,-1.40497 -1.88897,-6.94485 -8.07784,-13.43472 -13.77272,-16.47866 0.69499,0.63699 1.57397,1.43697 1.25997,1.56297 -2.83394,-1.68496 -2.33595,-1.81796 -2.74194,-2.52995 -2.30495,-0.93898 -2.45895,0.077 -3.98392,0.002 -4.34991,-2.30795 -5.18789,-2.06295 -9.190813,-3.50692 l 0.182,0.85198 c -2.88094,-0.95998 -3.35693,0.36199 -6.46987,0.002 -0.18899,-0.147 0.99798,-0.53599 1.97596,-0.67699 -2.78594,0.368 -2.65594,-0.54999 -5.38189,0.101 0.67099,-0.47099 1.38298,-0.78398 2.09896,-1.18397 -2.27095,0.13799 -5.42389,1.32197 -4.45091,0.24399 -3.70492,1.65397 -10.28578,3.97492 -13.97871,7.43785 l -0.11599,-0.77599 c -1.69197,2.03096 -7.37885,6.06588 -7.83184,8.69882 l -0.45299,0.105 c -0.87898,1.49097 -1.44997,3.17993 -2.14796,4.7129 -1.15097,1.96296 -1.68796,0.75599 -1.52397,1.06398 -2.26495,4.59191 -3.39193,8.44983 -4.36291,11.61576 0.69199,1.03498 0.017,6.23187 0.278,10.39078 -1.13598,20.543578 14.4177,40.488156 31.41935,45.092066 2.49195,0.89298 6.19687,0.86098 9.3488,0.94898 -3.71792,-1.06398 -4.19791,-0.56299 -7.82183,-1.82596 -2.61295,-1.23198 -3.18494,-2.63695 -5.0369,-4.24391 l 0.73298,1.29497 c -3.62992,-1.28498 -2.11095,-1.58997 -5.06489,-2.52495 l 0.78298,-1.02098 c -1.17697,-0.09 -3.11693,-1.98196 -3.64692,-3.03294 l -1.28797,0.051 c -1.54597,-1.90596 -2.37096,-3.28293 -2.30996,-4.34991 l -0.41599,0.74199 c -0.47099,-0.80898 -5.69088,-7.157848 -2.98294,-5.679878 -0.50299,-0.45799 -1.17197,-0.74699 -1.89696,-2.06596 l 0.55099,-0.62899 c -1.30097,-1.67696 -2.39795,-3.82592 -2.31395,-4.5419 0.69499,0.93798 1.17698,1.11397 1.65497,1.27497 -3.29094,-8.163828 -3.47593,-0.44899 -5.96688,-8.309828 l 0.52599,-0.042 c -0.40299,-0.61098 -0.64999,-1.26997 -0.97398,-1.91896 l 0.22999,-2.28495 c -2.36795,-2.73594 -0.66198,-11.64476 -0.31899,-16.52966 0.235,-1.98596 1.97696,-4.10091 3.29993,-7.41784 l -0.80598,-0.138 c 1.54197,-2.68794 8.80182,-10.79878 12.16575,-10.38278 1.62896,-2.04596 -0.324,-0.008 -0.64299,-0.52199 3.57893,-3.70293 4.7039,-2.61595 7.11885,-3.28294 2.60295,-1.54496 -2.23495,0.60399 -1.00098,-0.58898 4.50291,-1.14898 3.18994,-2.61395 9.06281,-3.19694 0.61999,0.352 -1.43697,0.54399 -1.95295,1.00098 3.74992,-1.83596 11.868753,-1.41697 17.144643,1.01798 6.11687,2.86094 12.99373,11.31377 13.26572,19.2666 l 0.309,0.083 c -0.156,3.16194 0.48399,6.81886 -0.62699,10.17679 l 0.75099,-1.59097"
         id="path5095" />
      <path
         inkscape:connector-curvature="0"
         style="fill:#d70751"
         d="m 82.862727,-111.25337 -0.211,1.04698 c 0.98298,1.33497 1.76296,2.78094 3.01594,3.82092 -0.90198,-1.75897 -1.57097,-2.48595 -2.80494,-4.8679"
         id="path5097" />
      <path
         inkscape:connector-curvature="0"
         style="fill:#d70751"
         d="m 85.183677,-111.34337 c -0.51999,-0.57599 -0.82599,-1.26797 -1.17198,-1.95596 0.32999,1.21098 1.00598,2.25195 1.63297,3.31193 l -0.46099,-1.35597"
         id="path5099" />
      <path
         inkscape:connector-curvature="0"
         style="fill:#d70751"
         d="m 126.26683,-120.27318 -0.219,0.55198 c -0.40199,2.85795 -1.27297,5.68589 -2.60495,8.30883 1.47197,-2.76694 2.42095,-5.79388 2.82395,-8.86081"
         id="path5101" />
      <path
         inkscape:connector-curvature="0"
         style="fill:#d70751"
         d="m 93.802497,-160.50135 c 1.00898,-0.36899 2.48195,-0.203 3.55592,-0.44599 -1.39797,0.117 -2.78894,0.187 -4.16191,0.36199 l 0.60599,0.084"
         id="path5103" />
      <path
         inkscape:connector-curvature="0"
         style="fill:#d70751"
         d="m 58.332227,-141.63974 c 0.233,2.15395 -1.61996,2.99094 0.41,1.56897 1.08997,-2.45395 -0.424,-0.67699 -0.41,-1.56897"
         id="path5105" />
      <path
         inkscape:connector-curvature="0"
         style="fill:#d70751"
         d="m 55.944277,-131.66595 c 0.46899,-1.43697 0.55299,-2.29895 0.73199,-3.13193 -1.29297,1.65396 -0.59599,2.00696 -0.73199,3.13193"
         id="path5107" />
    </g>
    <g
       id="g5192"
       transform="matrix(0.33102613,0,0,0.33102613,26.438779,30.36336)">
      <path
         inkscape:connector-curvature="0"
         d="m 51.642367,-35.439946 c -0.045,0.047 -0.045,7.50584 -0.13799,9.4528 -0.092,1.57397 -0.232,4.9569 -3.56793,4.9569 -3.42893,0 -4.26291,-3.93892 -4.54091,-5.65188 -0.32399,-1.89997 -0.32399,-3.47693 -0.32399,-4.16992 0,-2.22495 0.139,-8.43582 5.37489,-8.43582 1.57597,0 2.45595,0.46499 3.15093,0.83398 l 0.045,3.01994 z m -13.436722,5.46988 c 0,13.06573 6.950862,13.06573 7.969842,13.06573 2.87294,0 4.7269,-1.57596 5.51388,-4.30891 l 0.093,4.12292 c 0.88098,-0.047 1.76097,-0.139 3.19694,-0.139 0.50999,0 0.92598,0 1.29797,0.047 0.37099,0 0.74098,0.045 1.15797,0.092 -0.74098,-1.48197 -1.29697,-4.8179 -1.29697,-12.04875 0,-7.04286 0,-18.95061 0.60199,-22.56554 -1.66697,0.78899 -3.10494,1.29898 -6.25587,1.57597 1.25097,1.34397 1.25097,2.03896 1.25097,8.15383 -0.87898,-0.27699 -1.99196,-0.60199 -3.89192,-0.60199 -8.293832,0 -9.637802,7.22985 -9.637802,12.60974"
         id="path5109" />
      <path
         inkscape:connector-curvature="0"
         d="m 63.335127,-32.340016 c 0.047,-3.84592 0.83498,-7.27485 4.12391,-7.27485 3.61493,0 3.89092,3.98392 3.79893,7.27485 l -7.92284,0 z m 12.50974,0.45999 c 0,-5.42188 -1.06498,-10.75177 -7.92283,-10.75177 -9.45181,0 -9.45181,10.47478 -9.45181,12.69673 0,9.40581 4.21591,13.11273 11.30577,13.11273 3.14893,0 4.6799,-0.46099 5.51388,-0.69498 -0.046,-1.66797 0.185,-2.73395 0.46499,-4.16992 -0.97498,0.60399 -2.22595,1.39097 -5.00589,1.39097 -7.22885,0 -7.32185,-6.58186 -7.32185,-8.85181 l 12.32774,0 0.09,-2.73995"
         id="path5111" />
      <path
         inkscape:connector-curvature="0"
         d="m 90.919557,-29.880066 c 0,4.30891 -0.78699,10.10179 -6.16187,10.10179 -0.74199,0 -1.66797,-0.14099 -2.26996,-0.27899 -0.093,-1.66797 -0.093,-4.54091 -0.093,-7.87684 0,-3.98592 0.416,-6.06787 0.74199,-7.08985 0.97198,-3.28893 3.14993,-3.33393 3.56592,-3.33393 3.52193,0 4.21692,4.8599 4.21692,8.47982 z m -13.29773,5.0499 c 0,3.42993 0,5.37489 -0.55598,6.85685 1.89996,0.74199 4.26191,1.15798 7.08985,1.15798 1.80696,0 7.04285,0 9.86879,-5.79088 1.34398,-2.68794 1.80697,-6.30287 1.80697,-9.03681 0,-1.66797 -0.186,-5.32789 -1.52897,-7.64584 -1.29598,-2.17596 -3.38193,-3.28894 -5.60489,-3.28894 -4.4489,0 -5.74588,3.70693 -6.43986,5.60689 0,-2.36295 0.045,-10.61078 0.41499,-14.82769 -3.01094,1.39097 -4.8659,1.62096 -6.85686,1.80696 1.80696,0.73998 1.80696,3.80092 1.80696,13.76371 l 0,11.39677"
         id="path5113" />
      <path
         inkscape:connector-curvature="0"
         d="m 104.73927,-17.090326 c -0.92798,-0.139 -1.57797,-0.232 -2.92194,-0.232 -1.47997,0 -2.501953,0.094 -3.565923,0.232 0.46299,-0.88099 0.64798,-1.29898 0.78698,-4.30891 0.186,-4.12492 0.23199,-15.15369 -0.092,-17.47064 -0.232,-1.76197 -0.64799,-2.03896 -1.29697,-2.50195 3.798923,-0.37099 4.864903,-0.64799 6.624863,-1.48197 -0.36899,2.03696 -0.41799,3.05894 -0.41799,6.16187 -0.091,15.97967 -0.138,17.69964 0.88298,19.5996"
         id="path5115" />
      <path
         inkscape:connector-curvature="0"
         d="m 119.57696,-30.210056 c -0.092,2.91994 -0.13899,4.9589 -0.92798,6.57986 -0.97298,2.08596 -2.59394,2.68795 -3.79892,2.68795 -2.78294,0 -3.38293,-2.31596 -3.38293,-4.58591 0,-4.35491 3.89292,-4.6819 5.65188,-4.6819 l 2.45795,0 z m -12.74373,5.69988 c 0,2.91994 0.88098,5.83788 3.47693,7.08985 1.15797,0.50999 2.31595,0.50999 2.68794,0.50999 4.26391,0 5.69888,-3.15193 6.57986,-5.09789 -0.047,2.03896 0,3.28893 0.139,4.9119 0.83398,-0.047 1.66797,-0.139 3.05894,-0.139 0.78698,0 1.52897,0.092 2.31595,0.139 -0.50999,-0.78699 -0.78698,-1.25198 -0.92798,-3.05894 -0.092,-1.75996 -0.092,-3.52093 -0.092,-5.97688 l 0.047,-9.4528 c 0,-3.52293 -0.92798,-6.99785 -7.87884,-6.99785 -4.5859,0 -7.27285,1.39097 -8.61682,2.08595 0.55699,1.01998 1.01998,1.89796 1.43597,3.89292 1.80896,-1.57597 4.17191,-2.40995 6.57986,-2.40995 3.84792,0 3.84792,2.54895 3.84792,6.16187 -0.88098,-0.045 -1.62296,-0.13699 -2.87494,-0.13699 -5.88687,0.01 -9.77879,2.27995 -9.77879,8.48982"
         id="path5117" />
      <path
         inkscape:connector-curvature="0"
         d="m 146.26341,-21.680236 c 0.047,1.57597 0.047,3.24393 0.69498,4.58791 -1.02097,-0.092 -1.62296,-0.232 -3.52092,-0.232 -1.11298,0 -1.71497,0.094 -2.59595,0.232 0.184,-0.60199 0.279,-0.83399 0.37099,-1.62297 0.139,-1.06398 0.232,-4.6329 0.232,-5.88488 l 0,-5.00389 c 0,-2.17796 0,-5.32989 -0.141,-6.44087 -0.092,-0.78698 -0.32199,-2.91794 -3.01194,-2.91794 -2.64094,0 -3.52092,1.94496 -3.84591,3.52093 -0.369,1.62096 -0.369,3.38293 -0.369,10.23978 0.045,5.93188 0.045,6.48587 0.50799,8.10884 -0.78698,-0.092 -1.75996,-0.184 -3.14993,-0.184 -1.11298,0 -1.85396,0.045 -2.77894,0.184 0.32399,-0.74199 0.50998,-1.11298 0.60198,-3.70693 0.094,-2.54894 0.279,-15.06068 -0.14099,-18.02462 -0.23,-1.80897 -0.69499,-2.22496 -1.20298,-2.68795 3.75392,-0.18599 4.9569,-0.78898 6.11687,-1.38897 l 0,4.9099 c 0.55499,-1.43797 1.71297,-4.6349 6.34787,-4.6349 5.79288,0 5.83788,4.21691 5.88488,6.99585 l 0,13.92771"
         id="path5119" />
      <path
         inkscape:connector-curvature="0"
         style="fill:#d70751"
         d="m 105.13026,-49.419656 -3.83792,3.83592 -3.835923,-3.83592 3.835923,-3.83592 3.83792,3.83992"
         id="path5121" />
    </g>
    <path
       style="font-style:normal;font-variant:normal;font-weight:normal;font-stretch:normal;font-size:8.75px;line-height:125%;font-family:'Linux Biolinum';-inkscape-font-specification:'Linux Biolinum';letter-spacing:0px;word-spacing:0px;fill:#d70751;fill-opacity:1;stroke:none;stroke-width:1px;stroke-linecap:butt;stroke-linejoin:miter;stroke-opacity:1"
       d="M 61.470703 5.8183594 C 61.243203 5.9058594 61.058984 5.9678906 60.708984 5.9941406 L 60.691406 6.0195312 C 60.752656 6.3957812 60.769531 7.0439844 60.769531 7.7089844 L 60.769531 8.2773438 C 60.568281 8.1635938 60.210156 8.0859375 60.035156 8.0859375 C 58.888906 8.0859375 58.056641 8.8725 58.056641 10.0625 C 58.056641 11.13875 58.695625 12.013672 59.640625 12.013672 C 60.060625 12.013672 60.454531 11.829219 60.769531 11.417969 L 60.787109 11.417969 L 60.832031 11.925781 C 60.832031 11.943281 60.857656 11.953125 60.910156 11.953125 C 61.023906 11.944375 61.084531 11.925781 61.207031 11.925781 C 61.320781 11.925781 61.487812 11.935625 61.601562 11.953125 L 61.619141 11.925781 C 61.549141 11.549531 61.470703 10.902344 61.470703 10.246094 L 61.470703 7.5507812 C 61.470703 6.9032812 61.505078 6.44875 61.548828 5.90625 C 61.548828 5.845 61.523203 5.8183594 61.470703 5.8183594 z M 65.822266 5.8183594 C 65.594766 5.9058594 65.410547 5.9678906 65.060547 5.9941406 L 65.042969 6.0195312 C 65.104219 6.3957812 65.148437 7.0439844 65.148438 7.7089844 L 65.148438 11.287109 C 65.148438 11.628359 65.138516 11.759609 65.103516 11.943359 C 65.156016 11.995859 65.253359 12.013672 65.349609 12.013672 C 65.445859 11.908672 65.540469 11.760938 65.636719 11.585938 C 65.890469 11.804688 66.293672 12.013672 66.669922 12.013672 C 67.562422 12.013672 68.550781 11.383984 68.550781 9.8964844 C 68.550781 8.8289844 67.790156 8.0859375 66.941406 8.0859375 C 66.521406 8.0859375 66.145156 8.1996875 65.847656 8.5234375 L 65.847656 7.5507812 C 65.847656 6.9032812 65.856641 6.44875 65.900391 5.90625 C 65.900391 5.845 65.874766 5.8183594 65.822266 5.8183594 z M 33.976562 8.0859375 C 33.635312 8.0859375 33.199375 8.2605469 32.796875 8.8730469 L 32.779297 8.8457031 L 32.779297 8.2070312 C 32.779297 8.1457813 32.761563 8.1191406 32.726562 8.1191406 C 32.525312 8.1628906 32.210078 8.1727344 32.017578 8.1464844 L 32 8.171875 C 32.06125 8.556875 32.078125 9.2128906 32.078125 9.8691406 L 32.078125 12.207031 C 32.078125 12.863281 32.06125 13.493281 32 13.957031 L 32.017578 13.982422 C 32.122578 13.964922 32.324687 13.957031 32.429688 13.957031 C 32.534687 13.957031 32.734844 13.964922 32.839844 13.982422 L 32.857422 13.957031 C 32.787422 13.458281 32.779297 12.872031 32.779297 12.207031 L 32.779297 11.820312 C 33.006797 11.942813 33.329531 12.013672 33.644531 12.013672 C 34.799531 12.013672 35.5 11.138047 35.5 9.9042969 C 35.5 8.9767969 34.956562 8.0859375 33.976562 8.0859375 z M 38.232422 8.0859375 C 37.086172 8.0859375 36.341797 8.8903125 36.341797 10.132812 C 36.341797 11.182812 37.033516 12.013672 38.197266 12.013672 C 39.352266 12.013672 40.052734 11.200938 40.052734 10.054688 C 40.052734 8.8646875 39.413672 8.0859375 38.232422 8.0859375 z M 48.662109 8.0859375 C 47.760859 8.0859375 46.869141 8.8114063 46.869141 10.097656 C 46.869141 10.596406 46.964219 11.085547 47.261719 11.435547 C 47.559219 11.803047 48.059297 12.013672 48.654297 12.013672 C 49.284297 12.013672 49.843281 11.689375 50.175781 11.234375 L 50.001953 11.015625 C 49.695703 11.348125 49.283984 11.498047 48.802734 11.498047 C 48.496484 11.498047 48.085859 11.383047 47.849609 10.998047 C 47.692109 10.753047 47.638672 10.402969 47.638672 9.8867188 L 50.019531 9.8867188 C 50.115781 9.8867188 50.175781 9.8345312 50.175781 9.7382812 C 50.175781 9.0032813 49.817109 8.0859375 48.662109 8.0859375 z M 53.134766 8.0859375 C 52.662266 8.0859375 52.408437 8.3564844 52.023438 9.0214844 L 51.998047 9.0039062 L 51.998047 8.2070312 C 51.998047 8.1457813 51.980313 8.1191406 51.945312 8.1191406 C 51.744063 8.1628906 51.428828 8.1727344 51.236328 8.1464844 L 51.21875 8.171875 C 51.28 8.556875 51.296875 9.2128906 51.296875 9.8691406 L 51.296875 10.351562 C 51.296875 11.007812 51.28 11.462031 51.21875 11.925781 L 51.236328 11.953125 C 51.341328 11.935625 51.541484 11.925781 51.646484 11.925781 C 51.751484 11.925781 51.953594 11.935625 52.058594 11.953125 L 52.076172 11.925781 C 52.006172 11.427031 51.998047 11.016563 51.998047 10.351562 L 51.998047 9.8964844 C 51.998047 9.5289844 52.102422 9.3180469 52.294922 9.0292969 C 52.417422 8.8367969 52.618906 8.7246094 52.785156 8.7246094 C 52.960156 8.7246094 53.126484 8.7407031 53.240234 8.8457031 L 53.310547 8.828125 L 53.484375 8.1816406 L 53.449219 8.1464844 C 53.300469 8.1027344 53.292266 8.0859375 53.134766 8.0859375 z M 55.669922 8.0859375 C 54.768672 8.0859375 53.875 8.8114063 53.875 10.097656 C 53.875 10.596406 53.972031 11.085547 54.269531 11.435547 C 54.567031 11.803047 55.065156 12.013672 55.660156 12.013672 C 56.290156 12.013672 56.851094 11.689375 57.183594 11.234375 L 57.007812 11.015625 C 56.701563 11.348125 56.289844 11.498047 55.808594 11.498047 C 55.502344 11.498047 55.091719 11.383047 54.855469 10.998047 C 54.697969 10.753047 54.646484 10.402969 54.646484 9.8867188 L 57.025391 9.8867188 C 57.121641 9.8867188 57.183594 9.8345312 57.183594 9.7382812 C 57.183594 9.0032813 56.824922 8.0859375 55.669922 8.0859375 z M 42.853516 8.1464844 C 42.967266 8.5052344 43.107109 8.8904688 43.255859 9.2929688 C 43.028359 9.9492188 42.783047 10.605938 42.529297 11.148438 L 42.478516 11.148438 C 42.041016 10.150937 41.750547 9.1605469 41.435547 8.1542969 C 41.321797 8.1805469 41.120547 8.1816406 40.998047 8.1816406 C 40.858047 8.1816406 40.632187 8.1805469 40.492188 8.1542969 C 41.078437 9.4405469 41.619375 10.683437 42.109375 11.960938 C 42.196875 11.934687 42.310938 11.935547 42.398438 11.935547 C 42.485937 11.935547 42.634141 11.934687 42.712891 11.960938 C 42.949141 11.295937 43.204375 10.569219 43.484375 9.8867188 C 43.746875 10.569219 44.025547 11.279375 44.279297 11.953125 C 44.366797 11.926875 44.420313 11.925781 44.507812 11.925781 C 44.595313 11.925781 44.753281 11.926875 44.832031 11.953125 C 45.260781 10.920625 45.960234 9.2402344 46.458984 8.1464844 C 46.380234 8.1727344 46.169531 8.171875 46.082031 8.171875 C 45.994531 8.171875 45.863906 8.1727344 45.785156 8.1464844 C 45.461406 9.1789844 45.066719 10.298672 44.699219 11.138672 L 44.630859 11.138672 C 44.272109 10.176172 44.000078 9.0739844 43.798828 8.1464844 C 43.685078 8.1727344 43.483828 8.171875 43.361328 8.171875 C 43.221328 8.171875 42.993516 8.1727344 42.853516 8.1464844 z M 69.083984 8.1464844 C 69.425234 8.9252344 70.46625 11.182422 70.78125 12.013672 C 70.50125 12.669922 70.14375 13.34375 69.75 14 C 69.8375 13.97375 69.967187 13.957031 70.054688 13.957031 C 70.142187 13.957031 70.396875 13.97375 70.484375 14 C 70.816875 12.90625 72.732734 8.7327344 73.021484 8.1464844 C 72.933984 8.1727344 72.733984 8.171875 72.646484 8.171875 C 72.558984 8.171875 72.392188 8.1727344 72.304688 8.1464844 C 71.989688 9.1352344 71.577187 10.254062 71.148438 11.164062 L 71.130859 11.164062 C 70.702109 10.122813 70.2925 9.1527344 69.96875 8.1464844 C 69.855 8.1727344 69.661562 8.171875 69.539062 8.171875 C 69.425313 8.171875 69.206484 8.1727344 69.083984 8.1464844 z M 38.171875 8.4355469 C 39.099375 8.4355469 39.28125 9.1521875 39.28125 10.210938 C 39.28125 11.050937 38.861641 11.664062 38.275391 11.664062 C 37.347891 11.664062 37.111328 10.658125 37.111328 9.984375 C 37.111328 9.223125 37.349375 8.4355469 38.171875 8.4355469 z M 48.662109 8.4355469 C 49.003359 8.4355469 49.396484 8.7578125 49.396484 9.4140625 C 49.396484 9.4928125 49.362891 9.5371094 49.275391 9.5371094 L 47.664062 9.5371094 C 47.812812 8.6271094 48.382109 8.4355469 48.662109 8.4355469 z M 55.669922 8.4355469 C 56.011172 8.4355469 56.404297 8.7578125 56.404297 9.4140625 C 56.404297 9.4928125 56.36875 9.5371094 56.28125 9.5371094 L 54.671875 9.5371094 C 54.820625 8.6271094 55.389922 8.4355469 55.669922 8.4355469 z M 59.939453 8.4355469 C 60.350703 8.4355469 60.559531 8.6108594 60.769531 8.9433594 L 60.769531 10.9375 C 60.445781 11.34875 60.043359 11.558594 59.693359 11.558594 C 59.220859 11.558594 58.818359 11.085937 58.818359 9.9921875 C 58.818359 8.6796875 59.510703 8.4355469 59.939453 8.4355469 z M 66.765625 8.4355469 C 67.299375 8.4355469 67.773438 8.8817969 67.773438 9.9667969 C 67.773438 11.051797 67.448437 11.664062 66.617188 11.664062 C 66.345938 11.664062 66.022656 11.435547 65.847656 11.216797 L 65.847656 8.9511719 C 66.188906 8.6011719 66.406875 8.4355469 66.765625 8.4355469 z M 33.828125 8.4882812 C 34.423125 8.4882812 34.730469 9.0307813 34.730469 10.019531 C 34.730469 10.737031 34.528047 11.664062 33.591797 11.664062 C 33.451797 11.664062 33.085547 11.628281 32.779297 11.269531 L 32.779297 9.3535156 C 32.971797 8.8897656 33.486875 8.4882812 33.828125 8.4882812 z "
       id="text5201" />
  </g>
</svg>
